<svg xmlns="http://www.w3.org/2000/svg" xmlns:xlink="http://www.w3.org/1999/xlink" width="400" zoomAndPan="magnify" viewBox="0 0 262.5 74.999997" height="100" preserveAspectRatio="xMidYMid meet" version="1.0"><defs><g/><clipPath id="b18e0c3509"><path d="M 10.480469 1.570312 L 73.359375 1.570312 L 73.359375 74.179688 L 10.480469 74.179688 Z M 10.480469 1.570312 " clip-rule="nonzero"/></clipPath></defs><g clip-path="url(#b18e0c3509)"><path fill="#73d400" d="M 40.148438 1.828125 C 39.859375 1.890625 39.574219 1.960938 39.289062 2.050781 C 39.007812 2.136719 38.730469 2.238281 38.457031 2.355469 C 38.183594 2.472656 37.917969 2.601562 37.65625 2.742188 C 37.398438 2.886719 37.144531 3.039062 36.902344 3.210938 C 36.65625 3.378906 36.421875 3.558594 36.195312 3.746094 C 35.972656 3.941406 35.757812 4.140625 35.550781 4.355469 L 13.460938 27.132812 C 12.988281 27.617188 12.5625 28.148438 12.191406 28.714844 C 11.820312 29.285156 11.503906 29.882812 11.25 30.515625 C 10.996094 31.144531 10.800781 31.792969 10.671875 32.464844 C 10.542969 33.128906 10.480469 33.804688 10.480469 34.484375 L 10.480469 63.347656 C 10.480469 63.699219 10.496094 64.050781 10.535156 64.402344 C 10.570312 64.753906 10.621094 65.101562 10.691406 65.445312 C 10.757812 65.792969 10.847656 66.132812 10.949219 66.46875 C 11.050781 66.808594 11.167969 67.140625 11.304688 67.464844 C 11.441406 67.789062 11.59375 68.109375 11.757812 68.417969 C 11.925781 68.726562 12.105469 69.03125 12.304688 69.324219 C 12.5 69.617188 12.710938 69.898438 12.933594 70.171875 C 13.15625 70.445312 13.394531 70.703125 13.644531 70.953125 C 13.894531 71.203125 14.15625 71.4375 14.429688 71.660156 C 14.703125 71.886719 14.984375 72.09375 15.277344 72.289062 C 15.570312 72.488281 15.875 72.667969 16.1875 72.832031 C 16.496094 73 16.816406 73.148438 17.144531 73.285156 C 17.472656 73.417969 17.800781 73.539062 18.140625 73.644531 C 18.476562 73.746094 18.820312 73.832031 19.167969 73.898438 C 19.511719 73.96875 19.863281 74.019531 20.214844 74.054688 C 20.421875 74.074219 20.628906 74.089844 20.835938 74.097656 L 62.800781 74.097656 C 62.9375 74.089844 63.070312 74.074219 63.207031 74.046875 C 63.417969 74.003906 63.625 73.945312 63.824219 73.863281 C 64.023438 73.777344 64.210938 73.679688 64.390625 73.558594 C 64.570312 73.4375 64.734375 73.304688 64.890625 73.152344 C 65.039062 73 65.175781 72.835938 65.296875 72.65625 C 65.417969 72.476562 65.515625 72.289062 65.601562 72.089844 C 65.683594 71.890625 65.742188 71.683594 65.789062 71.472656 C 65.832031 71.261719 65.851562 71.050781 65.851562 70.835938 C 65.851562 70.617188 65.832031 70.40625 65.789062 70.195312 C 65.746094 69.984375 65.683594 69.78125 65.601562 69.582031 C 65.515625 69.382812 65.417969 69.195312 65.296875 69.015625 C 65.175781 68.835938 65.039062 68.671875 64.890625 68.519531 C 64.738281 68.367188 64.570312 68.234375 64.390625 68.113281 C 64.210938 67.992188 64.023438 67.890625 63.824219 67.808594 C 63.625 67.726562 63.417969 67.664062 63.207031 67.621094 C 62.996094 67.578125 62.785156 67.558594 62.566406 67.558594 L 46.554688 67.558594 C 46.5625 67.34375 46.566406 67.109375 46.566406 66.851562 L 46.566406 40.46875 L 56.613281 40.46875 C 57.769531 40.46875 58.664062 40.3125 59.296875 39.996094 C 59.714844 39.789062 60.011719 39.414062 60.1875 38.871094 C 60.363281 38.324219 60.453125 37.601562 60.453125 36.691406 C 60.453125 35.78125 60.363281 35.050781 60.1875 34.488281 C 60.011719 33.925781 59.660156 33.515625 59.136719 33.253906 C 58.613281 32.992188 57.785156 32.859375 56.664062 32.859375 L 27.421875 32.859375 C 26.265625 32.859375 25.371094 33.015625 24.742188 33.332031 C 24.316406 33.539062 24.019531 33.914062 23.847656 34.460938 C 23.671875 35.003906 23.585938 35.726562 23.585938 36.636719 C 23.585938 37.542969 23.671875 38.277344 23.847656 38.839844 C 24.019531 39.398438 24.371094 39.8125 24.898438 40.074219 C 25.421875 40.332031 26.25 40.464844 27.371094 40.464844 L 37.46875 40.464844 L 37.46875 66.792969 C 37.46875 67.074219 37.46875 67.324219 37.476562 67.554688 L 21.28125 67.554688 C 21.140625 67.554688 21.003906 67.546875 20.867188 67.535156 C 20.726562 67.519531 20.589844 67.5 20.457031 67.472656 C 20.324219 67.449219 20.1875 67.414062 20.054688 67.375 C 19.921875 67.335938 19.792969 67.289062 19.664062 67.234375 C 19.539062 67.183594 19.414062 67.125 19.289062 67.058594 C 19.167969 66.996094 19.050781 66.921875 18.933594 66.847656 C 18.816406 66.773438 18.707031 66.6875 18.601562 66.601562 C 18.492188 66.515625 18.390625 66.421875 18.292969 66.324219 C 18.195312 66.226562 18.105469 66.125 18.015625 66.019531 C 17.925781 65.914062 17.847656 65.800781 17.769531 65.6875 C 17.691406 65.570312 17.621094 65.457031 17.554688 65.332031 C 17.492188 65.210938 17.433594 65.085938 17.378906 64.960938 C 17.328125 64.832031 17.277344 64.703125 17.242188 64.570312 C 17.199219 64.441406 17.167969 64.308594 17.140625 64.171875 C 17.113281 64.035156 17.09375 63.902344 17.078125 63.761719 C 17.066406 63.625 17.058594 63.488281 17.058594 63.351562 L 17.058594 34.492188 C 17.054688 33.972656 17.152344 33.46875 17.347656 32.980469 C 17.542969 32.492188 17.820312 32.0625 18.1875 31.683594 L 40.273438 8.914062 C 40.378906 8.804688 40.496094 8.703125 40.621094 8.617188 C 40.746094 8.527344 40.882812 8.453125 41.023438 8.390625 C 41.164062 8.332031 41.308594 8.285156 41.460938 8.253906 C 41.609375 8.222656 41.761719 8.207031 41.917969 8.207031 C 42.070312 8.207031 42.222656 8.222656 42.375 8.253906 C 42.523438 8.285156 42.671875 8.328125 42.8125 8.390625 C 42.953125 8.453125 43.085938 8.527344 43.210938 8.617188 C 43.335938 8.703125 43.453125 8.804688 43.558594 8.914062 L 67.707031 33.804688 C 67.855469 33.960938 68.019531 34.101562 68.195312 34.226562 C 68.375 34.347656 68.5625 34.453125 68.761719 34.539062 C 68.960938 34.628906 69.164062 34.691406 69.375 34.738281 C 69.585938 34.785156 69.800781 34.808594 70.019531 34.816406 C 70.234375 34.820312 70.449219 34.800781 70.664062 34.761719 C 70.875 34.726562 71.082031 34.667969 71.285156 34.589844 C 71.484375 34.507812 71.679688 34.414062 71.859375 34.292969 C 72.039062 34.179688 72.210938 34.046875 72.363281 33.894531 C 72.519531 33.746094 72.660156 33.582031 72.78125 33.40625 C 72.90625 33.226562 73.011719 33.039062 73.097656 32.839844 C 73.179688 32.640625 73.25 32.4375 73.292969 32.226562 C 73.335938 32.015625 73.363281 31.804688 73.367188 31.585938 C 73.371094 31.371094 73.351562 31.160156 73.3125 30.945312 C 73.273438 30.730469 73.214844 30.523438 73.132812 30.324219 C 73.054688 30.125 72.957031 29.9375 72.839844 29.753906 C 72.71875 29.574219 72.585938 29.40625 72.4375 29.253906 L 48.28125 4.355469 C 48.074219 4.140625 47.859375 3.941406 47.632812 3.746094 C 47.410156 3.554688 47.171875 3.378906 46.929688 3.210938 C 46.6875 3.042969 46.433594 2.886719 46.175781 2.742188 C 45.914062 2.601562 45.648438 2.472656 45.375 2.355469 C 45.101562 2.238281 44.824219 2.136719 44.539062 2.050781 C 44.257812 1.964844 43.96875 1.890625 43.683594 1.828125 C 43.390625 1.769531 43.097656 1.726562 42.800781 1.695312 C 42.507812 1.667969 42.210938 1.652344 41.914062 1.652344 C 41.617188 1.652344 41.324219 1.667969 41.027344 1.695312 C 40.730469 1.726562 40.441406 1.769531 40.148438 1.828125 Z M 40.191406 42.445312 C 40.191406 41.914062 40.625 41.480469 41.160156 41.480469 L 42.734375 41.480469 C 43.269531 41.480469 43.703125 41.914062 43.703125 42.445312 L 43.703125 44.015625 C 43.703125 44.550781 43.269531 44.984375 42.734375 44.984375 L 41.160156 44.984375 C 40.625 44.984375 40.191406 44.550781 40.191406 44.015625 Z M 40.191406 49.898438 C 40.191406 49.363281 40.625 48.929688 41.160156 48.929688 L 42.734375 48.929688 C 43.269531 48.929688 43.703125 49.363281 43.703125 49.898438 L 43.703125 51.46875 C 43.703125 52 43.269531 52.433594 42.734375 52.433594 L 41.160156 52.433594 C 40.625 52.433594 40.191406 52 40.191406 51.46875 Z M 40.191406 56.773438 C 40.191406 56.238281 40.625 55.808594 41.160156 55.808594 L 42.734375 55.808594 C 43.269531 55.808594 43.703125 56.238281 43.703125 56.773438 L 43.703125 58.34375 C 43.703125 58.875 43.269531 59.308594 42.734375 59.308594 L 41.160156 59.308594 C 40.625 59.308594 40.191406 58.875 40.191406 58.34375 Z M 40.191406 64.25 C 40.191406 63.71875 40.625 63.285156 41.160156 63.285156 L 42.734375 63.285156 C 43.269531 63.285156 43.703125 63.71875 43.703125 64.25 L 43.703125 65.820312 C 43.703125 66.355469 43.269531 66.789062 42.734375 66.789062 L 41.160156 66.789062 C 40.625 66.789062 40.191406 66.355469 40.191406 65.820312 Z M 40.191406 64.25 " fill-opacity="1" fill-rule="nonzero"/></g><g fill="#73d400" fill-opacity="1"><g transform="translate(56.684807, 73.099735)"><g/></g></g><g fill="#73d400" fill-opacity="1"><g transform="translate(68.796169, 73.099735)"><g><path d="M 2.65625 0 L 2.65625 -22.734375 L 10.5 -22.734375 L 10.5 -20.34375 L 10.59375 -20.34375 C 12.632812 -22.382812 14.804688 -23.40625 17.109375 -23.40625 C 18.234375 -23.40625 19.347656 -23.253906 20.453125 -22.953125 C 21.566406 -22.660156 22.628906 -22.203125 23.640625 -21.578125 C 24.660156 -20.960938 25.488281 -20.085938 26.125 -18.953125 C 26.757812 -17.816406 27.078125 -16.492188 27.078125 -14.984375 L 27.078125 0 L 19.234375 0 L 19.234375 -12.859375 C 19.234375 -14.035156 18.859375 -15.066406 18.109375 -15.953125 C 17.359375 -16.835938 16.375 -17.28125 15.15625 -17.28125 C 13.976562 -17.28125 12.90625 -16.820312 11.9375 -15.90625 C 10.976562 -15 10.5 -13.984375 10.5 -12.859375 L 10.5 0 Z M 2.65625 0 "/></g></g></g><g fill="#73d400" fill-opacity="1"><g transform="translate(98.089868, 73.099735)"><g><path d="M 4.203125 -2.8125 C 2.078125 -5.132812 1.015625 -7.976562 1.015625 -11.34375 C 1.015625 -14.71875 2.078125 -17.570312 4.203125 -19.90625 C 6.335938 -22.238281 9.046875 -23.40625 12.328125 -23.40625 C 15.335938 -23.40625 17.816406 -22.457031 19.765625 -20.5625 L 19.765625 -22.734375 L 27.609375 -22.734375 L 27.609375 0 L 19.859375 0 L 19.859375 -2.578125 L 19.765625 -2.578125 C 17.816406 -0.410156 15.335938 0.671875 12.328125 0.671875 C 9.046875 0.671875 6.335938 -0.488281 4.203125 -2.8125 Z M 10.875 -15.203125 C 9.863281 -14.203125 9.359375 -12.914062 9.359375 -11.34375 C 9.359375 -9.78125 9.84375 -8.503906 10.8125 -7.515625 C 11.789062 -6.523438 13.078125 -6.03125 14.671875 -6.03125 C 16.210938 -6.03125 17.476562 -6.53125 18.46875 -7.53125 C 19.457031 -8.539062 19.953125 -9.8125 19.953125 -11.34375 C 19.953125 -12.914062 19.441406 -14.203125 18.421875 -15.203125 C 17.398438 -16.210938 16.148438 -16.71875 14.671875 -16.71875 C 13.160156 -16.71875 11.894531 -16.210938 10.875 -15.203125 Z M 10.875 -15.203125 "/></g></g></g><g fill="#73d400" fill-opacity="1"><g transform="translate(128.358535, 73.099735)"><g><path d="M 2.65625 0 L 2.65625 -22.734375 L 10.5 -22.734375 L 10.5 -20.34375 L 10.59375 -20.34375 C 12.632812 -22.382812 14.804688 -23.40625 17.109375 -23.40625 C 18.234375 -23.40625 19.347656 -23.253906 20.453125 -22.953125 C 21.566406 -22.660156 22.628906 -22.203125 23.640625 -21.578125 C 24.660156 -20.960938 25.488281 -20.085938 26.125 -18.953125 C 26.757812 -17.816406 27.078125 -16.492188 27.078125 -14.984375 L 27.078125 0 L 19.234375 0 L 19.234375 -12.859375 C 19.234375 -14.035156 18.859375 -15.066406 18.109375 -15.953125 C 17.359375 -16.835938 16.375 -17.28125 15.15625 -17.28125 C 13.976562 -17.28125 12.90625 -16.820312 11.9375 -15.90625 C 10.976562 -15 10.5 -13.984375 10.5 -12.859375 L 10.5 0 Z M 2.65625 0 "/></g></g></g><g fill="#73d400" fill-opacity="1"><g transform="translate(157.652234, 73.099735)"><g><path d="M 3.984375 -22.734375 L 3.984375 -31.203125 L 11.828125 -31.203125 L 11.828125 -22.734375 L 16.625 -22.734375 L 16.625 -16.75 L 11.828125 -16.75 L 11.828125 -9.53125 C 11.828125 -7.4375 12.421875 -6.390625 13.609375 -6.390625 C 13.898438 -6.390625 14.207031 -6.445312 14.53125 -6.5625 C 14.863281 -6.675781 15.117188 -6.796875 15.296875 -6.921875 L 15.5625 -7.09375 L 17.515625 -0.75 C 15.828125 0.195312 13.90625 0.671875 11.75 0.671875 C 10.269531 0.671875 9 0.410156 7.9375 -0.109375 C 6.875 -0.628906 6.066406 -1.320312 5.515625 -2.1875 C 4.972656 -3.0625 4.582031 -3.976562 4.34375 -4.9375 C 4.101562 -5.90625 3.984375 -6.929688 3.984375 -8.015625 L 3.984375 -16.75 L 0.703125 -16.75 L 0.703125 -22.734375 Z M 3.984375 -22.734375 "/></g></g></g><g fill="#73d400" fill-opacity="1"><g transform="translate(175.157544, 73.099735)"><g><path d="M 10.0625 -22.734375 L 10.0625 -11.921875 C 10.0625 -9.679688 10.398438 -8.085938 11.078125 -7.140625 C 11.765625 -6.191406 12.921875 -5.71875 14.546875 -5.71875 C 16.171875 -5.71875 17.320312 -6.191406 18 -7.140625 C 18.675781 -8.085938 19.015625 -9.679688 19.015625 -11.921875 L 19.015625 -22.734375 L 26.859375 -22.734375 L 26.859375 -10.015625 C 26.859375 -6.234375 25.875 -3.503906 23.90625 -1.828125 C 21.945312 -0.160156 18.820312 0.671875 14.53125 0.671875 C 10.25 0.671875 7.125 -0.160156 5.15625 -1.828125 C 3.195312 -3.503906 2.21875 -6.234375 2.21875 -10.015625 L 2.21875 -22.734375 Z M 10.0625 -22.734375 "/></g></g></g><g fill="#73d400" fill-opacity="1"><g transform="translate(204.229647, 73.099735)"><g><path d="M 2.65625 0 L 2.65625 -22.734375 L 10.5 -22.734375 L 10.5 -20.34375 L 10.59375 -20.34375 C 12.632812 -22.382812 14.804688 -23.40625 17.109375 -23.40625 C 18.765625 -23.40625 20.316406 -23.0625 21.765625 -22.375 C 23.210938 -21.695312 24.304688 -20.648438 25.046875 -19.234375 C 27.347656 -22.015625 29.859375 -23.40625 32.578125 -23.40625 C 35.003906 -23.40625 37.085938 -22.722656 38.828125 -21.359375 C 40.578125 -20.003906 41.453125 -17.878906 41.453125 -14.984375 L 41.453125 0 L 33.59375 0 L 33.59375 -12.859375 C 33.59375 -14.066406 33.257812 -15.078125 32.59375 -15.890625 C 31.9375 -16.703125 30.941406 -17.109375 29.609375 -17.109375 C 28.453125 -17.109375 27.570312 -16.757812 26.96875 -16.0625 C 26.363281 -15.375 26.03125 -14.539062 25.96875 -13.5625 L 25.96875 0 L 18.125 0 L 18.125 -12.859375 C 18.125 -14.066406 17.789062 -15.078125 17.125 -15.890625 C 16.46875 -16.703125 15.472656 -17.109375 14.140625 -17.109375 C 12.929688 -17.109375 12.019531 -16.726562 11.40625 -15.96875 C 10.800781 -15.21875 10.5 -14.328125 10.5 -13.296875 L 10.5 0 Z M 2.65625 0 "/></g></g></g><g fill="#73d400" fill-opacity="1"><g transform="translate(53.719539, 69.805937)"><g><path d="M 12.703125 -15.4375 L 2.25 -9.703125 C 2.8125 -8.691406 3.550781 -8.117188 4.46875 -7.984375 C 5.382812 -7.859375 6.226562 -8.003906 7 -8.421875 C 7.800781 -8.867188 8.375 -9.328125 8.71875 -9.796875 C 9.070312 -10.273438 9.378906 -11 9.640625 -11.96875 L 14.21875 -12.140625 C 14.09375 -8.804688 12.289062 -6.1875 8.8125 -4.28125 C 6.632812 -3.082031 4.359375 -2.800781 1.984375 -3.4375 C -0.390625 -4.082031 -2.148438 -5.453125 -3.296875 -7.546875 C -4.453125 -9.648438 -4.660156 -11.875 -3.921875 -14.21875 C -3.179688 -16.570312 -1.722656 -18.347656 0.453125 -19.546875 C 2.734375 -20.796875 4.953125 -21.148438 7.109375 -20.609375 C 9.265625 -20.078125 11.019531 -18.582031 12.375 -16.125 C 12.5625 -15.789062 12.671875 -15.5625 12.703125 -15.4375 Z M 0.875 -12.546875 L 6.359375 -15.546875 C 5.828125 -16.234375 5.210938 -16.644531 4.515625 -16.78125 C 3.828125 -16.925781 3.109375 -16.796875 2.359375 -16.390625 C 1.535156 -15.929688 0.992188 -15.351562 0.734375 -14.65625 C 0.484375 -13.957031 0.53125 -13.253906 0.875 -12.546875 Z M 0.875 -12.546875 "/></g></g></g></svg>